<?xml version="1.0" standalone="no"?>
<!DOCTYPE svg PUBLIC "-//W3C//DTD SVG 20010904//EN"
 "http://www.w3.org/TR/2001/REC-SVG-20010904/DTD/svg10.dtd">
<svg version="1.0" xmlns="http://www.w3.org/2000/svg"
 width="940.000000pt" height="788.000000pt" viewBox="0 0 940.000000 788.000000"
 preserveAspectRatio="xMidYMid meet">

<g transform="translate(0.000000,788.000000) scale(0.100000,-0.100000)"
fill="#000000" stroke="none">
<path d="M4767 5419 c-59 -10 -140 -29 -180 -41 -62 -19 -94 -22 -232 -22
-189 1 -279 15 -312 50 -16 17 -33 24 -60 24 -62 0 -113 -18 -123 -45 -5 -13
-22 -27 -42 -34 -77 -25 -278 -61 -340 -61 -55 0 -71 -4 -95 -24 -40 -34 -168
-84 -233 -91 -30 -4 -81 -14 -113 -23 -55 -16 -58 -18 -53 -44 4 -22 -1 -31
-30 -53 -20 -15 -43 -43 -51 -63 -14 -33 -13 -42 13 -134 39 -145 81 -177 250
-192 171 -16 174 -16 211 -49 38 -33 133 -221 133 -263 0 -12 5 -26 11 -30 6
-4 9 -19 5 -37 -5 -23 1 -41 28 -81 19 -29 53 -89 75 -135 22 -46 57 -105 77
-131 36 -47 38 -48 60 -33 13 8 25 14 28 14 18 -3 27 0 22 7 -3 5 14 26 37 48
l42 39 -34 -37 c-39 -43 -30 -48 30 -17 23 11 39 16 36 11 -4 -4 -24 -17 -47
-27 -22 -10 -40 -22 -40 -27 0 -4 -6 -8 -13 -8 -8 0 -24 -11 -36 -24 -21 -22
-21 -26 -8 -48 29 -45 33 -148 6 -148 -5 0 -40 21 -78 46 -38 25 -75 43 -81
39 -6 -3 -10 -3 -8 2 1 4 -2 45 -6 90 -12 122 -10 121 -199 99 -155 -17 -473
-77 -652 -122 -182 -46 -335 -126 -358 -187 -18 -46 -11 -466 7 -473 7 -3 40
11 72 30 95 57 209 102 368 145 82 23 150 40 152 39 1 -2 -30 -47 -70 -100
-39 -54 -79 -111 -89 -127 l-17 -30 170 -122 c94 -67 172 -120 173 -118 95
149 177 261 339 463 l17 21 40 -33 c22 -17 46 -32 54 -32 11 0 15 -12 14 -47
0 -53 20 -223 27 -231 7 -7 169 20 183 30 6 5 13 22 15 36 l3 27 23 -35 c31
-49 28 -60 -12 -60 -56 0 -86 -16 -92 -50 -6 -25 -11 -30 -37 -30 -16 0 -48
-8 -71 -19 -23 -10 -59 -24 -81 -31 -65 -20 -187 -100 -182 -119 2 -9 6 -22 8
-30 6 -24 -248 -155 -361 -186 -205 -56 -212 -58 -233 -87 -15 -20 -107 -73
-302 -173 -277 -142 -397 -195 -439 -195 -36 0 -68 -28 -60 -53 7 -25 76 -200
80 -206 7 -8 136 52 453 211 254 127 341 175 362 201 34 41 73 58 219 97 110
29 262 97 368 164 35 22 57 27 139 32 54 3 125 10 158 16 57 11 330 13 753 6
164 -3 185 -1 287 24 125 31 392 49 405 29 4 -8 62 -12 171 -13 192 -3 255 11
319 68 33 30 42 34 59 24 12 -6 21 -15 21 -21 0 -10 90 -114 168 -194 21 -22
74 -62 118 -90 43 -27 119 -79 168 -114 101 -73 427 -266 563 -334 50 -26 94
-51 98 -57 16 -26 38 -2 87 95 l53 106 -25 19 c-14 11 -32 20 -40 20 -17 0
-24 4 -155 77 -49 28 -145 80 -212 116 -67 36 -182 105 -255 154 -73 48 -169
105 -214 128 -44 22 -97 53 -117 68 -21 16 -57 37 -82 48 -56 25 -60 31 -40
70 15 29 15 32 -1 50 -23 26 -84 63 -91 56 -3 -3 -15 3 -26 14 -12 11 -44 26
-72 34 -58 17 -155 71 -155 85 0 10 -50 36 -117 60 l-32 12 21 51 c48 121 67
189 59 206 -12 21 -91 61 -120 61 -13 0 -19 4 -16 11 8 12 57 3 98 -17 25 -14
27 -13 28 8 5 79 -4 412 -12 456 l-10 52 45 60 c31 43 53 86 71 145 14 46 41
121 60 165 19 45 35 92 35 104 0 27 29 56 56 56 27 1 64 34 64 58 0 14 9 22
29 27 16 3 37 15 46 25 10 11 37 29 60 40 24 12 63 38 87 58 23 21 73 51 111
66 82 35 141 76 168 119 17 28 19 46 17 154 -3 117 -4 123 -30 150 -16 16 -94
61 -175 101 -142 69 -251 107 -396 138 -82 17 -295 19 -352 2 -60 -17 -296
-13 -390 6 -95 19 -91 19 -228 -5z m256 -86 c-7 -2 -21 -2 -30 0 -10 3 -4 5
12 5 17 0 24 -2 18 -5z m-848 -73 c83 -6 191 -17 240 -25 70 -11 161 -12 410
-7 464 9 477 8 600 -18 91 -20 140 -24 290 -25 l180 -1 100 -45 c55 -25 129
-61 165 -79 l65 -33 -125 -59 c-108 -51 -127 -57 -146 -47 -32 17 -80 -14
-181 -117 -58 -59 -89 -84 -106 -84 -28 0 -60 -31 -62 -60 -2 -31 -65 -90 -94
-90 -15 0 -64 -14 -111 -31 -47 -16 -153 -50 -237 -74 l-152 -44 -103 31
c-205 60 -372 49 -573 -37 -73 -32 -88 -35 -122 -27 -21 6 -96 13 -168 17 -71
3 -188 16 -259 29 l-130 22 -30 45 c-53 78 -193 235 -229 258 -54 33 -109 49
-230 66 -136 19 -208 40 -200 60 9 26 66 53 178 85 61 18 160 54 220 82 61 27
144 62 185 78 41 15 98 37 125 48 28 11 75 26 105 32 30 7 69 20 85 28 63 33
108 36 310 22z m1715 -390 c0 -5 -5 -10 -11 -10 -5 0 -7 5 -4 10 3 6 8 10 11
10 2 0 4 -4 4 -10z m-29 -64 c3 -25 -4 -42 -24 -63 -25 -28 -52 -31 -42 -5 4
9 11 29 15 44 5 15 11 32 15 37 7 13 35 3 36 -13z m-81 -43 c0 -12 -33 -43
-47 -43 -18 0 -17 15 3 34 15 16 44 22 44 9z m-20 -78 c-7 -8 -18 -15 -24 -15
-6 0 -2 7 8 15 25 19 32 19 16 0z m206 4 c10 -17 -8 -26 -63 -31 -60 -6 -69 6
-20 27 39 17 73 19 83 4z m-151 -78 c-3 -6 -11 -11 -17 -11 -6 0 -6 6 2 15 14
17 26 13 15 -4z m83 1 c4 -13 -44 -39 -55 -29 -8 9 28 48 41 44 5 -2 12 -9 14
-15z m-1748 -692 c0 -5 -4 -10 -10 -10 -5 0 -10 5 -10 10 0 6 5 10 10 10 6 0
10 -4 10 -10z m-580 -54 c0 -22 -17 -28 -40 -14 -28 18 -25 28 10 28 19 0 30
-5 30 -14z m-130 -10 c-8 -7 -55 -19 -105 -25 -209 -28 -603 -116 -723 -163
-29 -11 -56 -18 -59 -14 -3 3 3 9 13 12 10 4 43 18 73 31 112 48 510 137 746
166 67 9 71 8 55 -7z m-40 -36 c0 -5 -15 -10 -33 -10 -44 0 -63 -17 -77 -67
-6 -23 -15 -45 -19 -48 -12 -7 14 92 29 110 6 8 28 16 48 18 20 2 40 4 45 5 4
1 7 -2 7 -8z m-126 -18 c7 -11 -26 -142 -37 -142 -4 0 -6 8 -3 18 17 58 27
105 23 108 -2 3 -30 2 -61 -2 -39 -5 -60 -12 -66 -24 -9 -16 -6 -17 30 -13 31
4 40 2 40 -9 0 -10 -14 -18 -39 -22 -22 -3 -41 -13 -45 -22 -5 -13 0 -15 35
-9 32 6 40 4 37 -6 -5 -15 -24 -26 -59 -33 -15 -3 -30 -13 -33 -22 -4 -11 -1
-14 12 -10 9 2 37 7 62 10 60 8 21 -10 -44 -19 -49 -8 -58 3 -37 43 6 9 12 29
16 45 3 16 12 27 23 28 16 1 16 2 0 6 -10 2 -18 12 -19 21 0 9 -11 -21 -23
-68 -21 -80 -24 -85 -54 -94 -29 -8 -36 -6 -62 19 -24 23 -30 25 -30 12 0 -9
5 -17 11 -17 7 0 17 -8 24 -17 12 -16 20 -16 86 -5 41 7 85 15 99 19 23 5 24
4 10 -11 -18 -19 -154 -50 -190 -43 -14 3 -29 -1 -35 -9 -5 -7 -71 -29 -146
-48 -74 -19 -156 -44 -182 -55 -26 -11 -47 -16 -47 -11 0 5 26 18 58 30 67 25
105 48 98 59 -3 4 13 25 36 47 40 39 40 39 36 12 -3 -16 -2 -28 1 -28 22 0 41
34 59 103 18 67 19 78 6 73 -9 -3 -19 -6 -23 -6 -4 0 -13 -16 -20 -35 -15 -41
-28 -45 -37 -9 -6 22 -10 25 -33 19 -38 -9 -41 -16 -28 -62 9 -35 8 -45 -2
-55 -12 -11 -13 -10 -7 6 3 10 1 36 -6 58 -10 35 -13 38 -24 24 -10 -14 -13
-14 -17 -3 -4 10 10 19 45 31 63 20 75 20 87 -1 8 -16 10 -14 16 9 5 19 15 29
37 33 19 5 33 3 38 -5 5 -9 9 -8 13 3 3 8 18 17 34 20 21 4 34 -1 55 -20 l26
-25 7 31 c8 37 10 38 60 45 22 4 69 12 105 20 82 18 78 17 84 8z m286 -72 c11
-6 24 -20 30 -31 42 -78 -226 -446 -442 -610 -82 -61 -117 -72 -153 -46 -28
21 -17 136 23 220 89 191 303 409 452 460 54 19 66 20 90 7z m220 -125 c0 -8
-4 -15 -10 -15 -5 0 -10 7 -10 15 0 8 5 15 10 15 6 0 10 -7 10 -15z m-1 -113
c1 -20 -3 -31 -9 -27 -6 3 -7 18 -4 33 4 19 3 23 -4 13 -7 -10 -11 -10 -17 -1
-4 6 -13 9 -21 6 -8 -3 -14 -1 -14 4 0 6 9 10 20 10 11 0 24 8 27 17 6 15 7
15 14 -3 4 -10 8 -34 8 -52z m301 62 c26 -6 31 -11 26 -28 -5 -20 -4 -20 9 -2
11 15 22 18 52 13 65 -10 97 -18 103 -25 3 -4 25 -8 50 -8 25 -1 65 -6 90 -11
43 -9 44 -10 23 -21 -13 -7 -23 -19 -23 -27 0 -23 18 -18 36 10 9 14 25 25 35
25 20 0 26 -15 9 -25 -5 -3 -10 -1 -10 6 0 7 -8 5 -20 -6 -23 -21 -19 -35 5
-15 8 7 15 10 15 6 0 -4 11 0 23 9 16 10 35 13 55 9 30 -6 32 -10 32 -46 0
-34 -3 -39 -17 -33 -18 7 -169 40 -258 56 -27 6 -57 13 -65 16 -8 3 -21 5 -28
4 -7 -1 -38 3 -70 9 -31 7 -68 13 -82 15 -13 2 -46 7 -72 10 l-47 7 21 29 c23
30 45 35 108 23z m-357 -102 c8 -11 12 -11 18 0 14 22 28 -4 18 -31 -8 -20
-14 -22 -43 -17 -27 5 -37 3 -45 -11 -18 -32 -12 3 11 58 16 39 24 48 26 34 2
-11 9 -26 15 -33z m226 -136 c-19 -16 -89 -55 -89 -48 0 9 69 51 84 52 5 0 7
-2 5 -4z m1470 -394 c25 -16 63 -31 84 -35 21 -3 53 -15 70 -27 l32 -21 -70 6
c-38 4 -107 6 -153 6 -63 0 -81 3 -76 12 32 53 55 87 61 87 3 0 27 -13 52 -28z
m-1359 -101 c0 -5 -9 -11 -20 -14 -13 -3 -20 0 -20 9 0 8 9 14 20 14 11 0 20
-4 20 -9z m-60 -6 c0 -2 -10 -9 -22 -15 -22 -11 -22 -10 -4 4 21 17 26 19 26
11z m-250 -124 c0 -11 -80 -64 -87 -58 -2 3 15 19 39 36 49 34 48 34 48 22z
m-90 -91 c0 -5 -7 -10 -16 -10 -8 0 -12 5 -9 10 3 6 10 10 16 10 5 0 9 -4 9
-10z"/>
<path d="M3047 3753 c-3 -5 -8 -23 -12 -40 -8 -40 -14 -41 -45 -8 -16 17 -33
25 -50 23 -22 -3 -27 -11 -47 -85 -12 -46 -19 -83 -16 -83 19 0 43 25 48 52
11 51 15 52 46 15 35 -42 75 -41 85 2 11 48 25 102 31 117 3 9 -2 14 -15 14
-12 0 -23 -3 -25 -7z"/>
<path d="M3158 3733 c7 -3 16 -2 19 1 4 3 -2 6 -13 5 -11 0 -14 -3 -6 -6z"/>
<path d="M2881 3684 c0 -11 3 -14 6 -6 3 7 2 16 -1 19 -3 4 -6 -2 -5 -13z"/>
<path d="M3123 3663 c9 -2 23 -2 30 0 6 3 -1 5 -18 5 -16 0 -22 -2 -12 -5z"/>
<path d="M2851 3564 c-1 -15 -12 -24 -42 -33 -68 -21 -35 -25 41 -5 67 17 100
40 41 28 -23 -5 -30 -2 -34 12 -4 17 -5 16 -6 -2z"/>
<path d="M3429 3673 c-60 -29 -96 -59 -189 -152 -157 -158 -245 -311 -238
-412 3 -40 6 -44 31 -47 44 -5 103 37 218 154 235 242 376 494 276 494 -14 0
-58 -17 -98 -37z m11 -43 c-8 -5 -22 -9 -30 -9 -10 0 -8 3 5 9 27 12 43 12 25
0z m40 -26 c9 -22 5 -37 -26 -93 -51 -95 -62 -99 -18 -8 23 49 35 86 32 102
-7 33 0 32 12 -1z m17 4 c-3 -8 -6 -5 -6 6 -1 11 2 17 5 13 3 -3 4 -12 1 -19z
m-132 -40 c-4 -18 -8 -40 -9 -50 -3 -21 -56 -91 -64 -84 -9 10 -41 -25 -36
-38 3 -7 -6 -21 -18 -32 -23 -19 -23 -19 -8 2 8 11 2 6 -14 -10 l-30 -30 25
-8 24 -7 -26 2 c-14 1 -32 -3 -40 -9 -14 -12 -69 -25 -69 -17 0 13 256 313
267 313 3 0 2 -15 -2 -32z m5 -108 c-24 -83 -39 -106 -20 -29 7 24 13 56 15
71 3 30 14 52 22 44 3 -3 -4 -42 -17 -86z m-80 -34 c0 -2 -8 -10 -17 -17 -16
-13 -17 -12 -4 4 13 16 21 21 21 13z m9 -53 c-18 -21 -38 -42 -43 -48 -18 -20
10 23 34 53 14 17 29 31 34 31 6 1 -6 -16 -25 -36z m41 -18 c0 -8 -4 -15 -10
-15 -5 0 -7 7 -4 15 4 8 8 15 10 15 2 0 4 -7 4 -15z"/>
<path d="M3985 3530 c-10 -11 -13 -20 -7 -20 6 0 16 9 22 20 6 11 9 20 7 20
-2 0 -12 -9 -22 -20z"/>
<path d="M4072 3520 c-6 -11 -12 -22 -12 -25 0 -11 20 6 30 26 14 25 -2 25
-18 -1z"/>
<path d="M4116 3511 c-16 -17 -16 -19 6 -24 12 -4 24 -4 27 -2 2 3 -2 5 -9 5
-9 0 -8 6 5 20 15 16 15 20 3 20 -8 0 -23 -8 -32 -19z"/>
<path d="M4217 3495 c-18 -25 -11 -35 9 -15 8 8 15 6 24 -5 16 -19 34 -19 50
0 7 8 16 13 20 10 5 -3 11 -2 14 3 7 12 -26 11 -42 -1 -9 -7 -18 -4 -33 11
-11 12 -21 22 -22 22 -1 0 -10 -12 -20 -25z"/>
<path d="M4341 3476 c-7 -9 -17 -14 -21 -11 -5 3 -11 1 -14 -4 -4 -6 8 -8 29
-5 20 2 35 0 35 -6 0 -5 7 -10 16 -10 10 0 14 6 11 14 -3 8 -1 17 6 20 7 4 0
4 -15 1 -15 -3 -28 0 -30 6 -2 7 -9 5 -17 -5z"/>
<path d="M4507 3442 c-10 -10 -14 -22 -10 -25 7 -8 43 21 43 35 0 14 -16 9
-33 -10z"/>
<path d="M4553 3430 c3 -10 0 -21 -7 -24 -6 -2 0 -5 13 -5 17 -1 22 3 17 15
-3 9 -6 20 -6 25 0 5 -5 9 -11 9 -6 0 -9 -9 -6 -20z"/>
<path d="M2822 3072 c-8 -6 3 -21 39 -50 29 -23 46 -42 38 -42 -7 0 9 -16 36
-35 52 -36 151 -104 172 -118 7 -4 16 0 23 13 8 16 7 25 -7 45 -10 13 -23 25
-28 25 -6 0 -21 10 -35 23 -14 13 -40 32 -59 43 -19 10 -46 29 -60 42 -14 13
-33 21 -42 19 -12 -3 -16 0 -12 9 5 12 -8 19 -29 15 -5 0 -8 4 -8 9 0 12 -10
13 -28 2z"/>
</g>
</svg>
